<svg width="21" height="20" viewBox="0 0 21 20" fill="none" xmlns="http://www.w3.org/2000/svg">
<path d="M9.84744 0.0325535C9.72854 0.0598502 7.4708 2.25329 4.81817 4.89622C0.513785 9.2006 0 9.74169 0 9.99888C0 10.2561 0.513785 10.7978 4.81817 15.0924C7.4702 17.7451 9.70974 19.9379 9.80134 19.9658C10.0306 20.058 10.3885 19.9567 10.6269 19.7456C10.7737 19.6079 10.8289 19.452 10.8289 19.1857C10.8289 18.8097 10.8016 18.7727 6.92851 14.9093C4.78117 12.7619 3.02811 10.9816 3.02811 10.9446C3.02811 10.9076 6.74471 10.8621 11.2875 10.853L19.5469 10.8251L19.795 10.5776C19.9691 10.3938 20.0424 10.2288 20.0424 9.99888C20.0424 9.76898 19.9691 9.60459 19.795 9.4208L19.5469 9.1727L11.2875 9.14541C6.74471 9.13631 3.02811 9.09021 3.02811 9.0532C3.02811 9.0162 4.78117 7.23585 6.92851 5.08851C10.7919 1.22512 10.8289 1.18812 10.8289 0.812028C10.8289 0.261241 10.3515 -0.114849 9.84683 0.0319463L9.84744 0.0325535Z" fill="#00A7B5"/>
</svg>
