<svg width="16" height="16" viewBox="0 0 16 16" fill="none" xmlns="http://www.w3.org/2000/svg">
<path d="M8.61442 15.4756C8.70359 15.4551 10.3969 13.81 12.3864 11.8278C15.6147 8.59955 16 8.19374 16 8.00084C16 7.80794 15.6147 7.40168 12.3864 4.18067C10.3974 2.19119 8.7177 0.546563 8.649 0.525635C8.47703 0.456483 8.20861 0.53246 8.02982 0.69078C7.91972 0.794052 7.87832 0.910973 7.87832 1.11069C7.87832 1.39276 7.8988 1.42051 10.8036 4.31805C12.4141 5.92856 13.7289 7.26383 13.7289 7.29158C13.7289 7.31933 10.9415 7.35345 7.53438 7.36027L1.33985 7.3812L1.15378 7.56682C1.02321 7.70467 0.968163 7.82841 0.968163 8.00084C0.968163 8.17326 1.02321 8.29655 1.15378 8.4344L1.33985 8.62047L7.53438 8.64094C10.9415 8.64777 13.7289 8.68234 13.7289 8.7101C13.7289 8.73785 12.4141 10.0731 10.8036 11.6836C7.90607 14.5812 7.87832 14.6089 7.87832 14.891C7.87832 15.3041 8.23636 15.5861 8.61488 15.476L8.61442 15.4756Z" fill="#00A7B5"/>
</svg>
