<svg width="92" height="24" viewBox="0 0 92 24" fill="none" xmlns="http://www.w3.org/2000/svg">
<path d="M8.59904 14.3684C10.9788 14.8421 13.4221 15.3158 18.2769 15.3158C23.1317 15.3158 25.575 14.8421 27.9548 14.3684C30.176 13.9263 32.2702 13.5158 36.5538 13.5158C40.8375 13.5158 42.9635 13.9263 45.1529 14.3684C47.5327 14.8421 49.976 15.3158 54.8308 15.3158C59.6856 15.3158 62.1288 14.8421 64.5086 14.3684C66.7298 13.9263 68.824 13.5158 73.1077 13.5158C77.3913 13.5158 79.5173 13.9263 81.7067 14.3684C84.0548 14.8421 86.4663 15.3158 91.1308 15.3158C91.2577 15.3158 91.3529 15.2211 91.3529 15.0947V10.3263C91.3529 10.2 91.2577 10.1053 91.1308 10.1053C86.974 10.1053 84.9115 9.69474 82.7538 9.25263C80.374 8.77895 77.9308 8.30526 73.076 8.30526C68.2212 8.30526 65.7779 8.77895 63.3981 9.25263C61.1769 9.69474 59.0827 10.1053 54.799 10.1053C50.5154 10.1053 48.3894 9.69474 46.2 9.25263C43.8202 8.77895 41.3769 8.30526 36.5221 8.30526C31.6673 8.30526 29.224 8.77895 26.8442 9.25263C24.6231 9.69474 22.5288 10.1053 18.2452 10.1053C13.9615 10.1053 11.8356 9.69474 9.64615 9.25263C8.53558 9.03158 7.39327 8.81053 5.99712 8.62105V5.58947C6.94904 5.71579 7.77404 5.87368 8.59904 6.06316C10.9788 6.53684 13.4221 7.01053 18.2769 7.01053C23.1317 7.01053 25.575 6.53684 27.9548 6.06316C30.176 5.62105 32.2702 5.21053 36.5538 5.21053C40.8375 5.21053 42.9635 5.62105 45.1529 6.06316C47.5327 6.53684 49.976 7.01053 54.8308 7.01053C59.6856 7.01053 62.1288 6.53684 64.5086 6.06316C66.7298 5.62105 68.824 5.21053 73.1077 5.21053C77.3913 5.21053 79.5173 5.62105 81.7067 6.06316C84.0548 6.53684 86.4663 7.01053 91.1308 7.01053C91.2577 7.01053 91.3529 6.91579 91.3529 6.78947V2.02105C91.3529 1.89474 91.2577 1.8 91.1308 1.8C86.974 1.8 84.9115 1.38947 82.7538 0.947369C80.374 0.473684 77.9308 0 73.076 0C68.2212 0 65.7779 0.473684 63.3981 0.947369C61.1769 1.38947 59.0827 1.8 54.799 1.8C50.4837 1.8 48.3894 1.38947 46.2 0.947369C43.8202 0.473684 41.3769 0 36.5221 0C31.6673 0 29.224 0.473684 26.8442 0.947369C24.6231 1.38947 22.5288 1.8 18.2452 1.8C13.9298 1.8 11.8356 1.38947 9.64615 0.947369C7.29808 0.473684 4.88654 0 0.222114 0C0.0951913 0 0 0.0947371 0 0.378948V4.51579V21.7895C0 21.7579 0.0951913 21.8526 0.222114 21.8526C4.37885 21.8526 6.44135 22.2632 8.59904 22.7053C10.9788 23.1789 13.4221 23.6526 18.2769 23.6526C23.1317 23.6526 25.575 23.1789 27.9548 22.7053C30.176 22.2632 32.2702 21.8526 36.5538 21.8526C40.8375 21.8526 42.9635 22.2632 45.1529 22.7053C47.5327 23.1789 49.976 23.6526 54.8308 23.6526C59.6856 23.6526 62.1288 23.1789 64.5086 22.7053C66.7298 22.2632 68.824 21.8526 73.1077 21.8526C77.3913 21.8526 79.5173 22.2632 81.7067 22.7053C84.0548 23.1789 86.4663 23.6526 91.1308 23.6526C91.2577 23.6526 91.3529 23.5579 91.3529 23.4316V18.6632C91.3529 18.5368 91.2577 18.4421 91.1308 18.4421C86.974 18.4421 84.9115 18.0316 82.7538 17.5895C80.374 17.1158 77.9308 16.6421 73.076 16.6421C68.2212 16.6421 65.7779 17.1158 63.3981 17.5895C61.1769 18.0316 59.0827 18.4421 54.799 18.4421C50.5154 18.4421 48.3894 18.0316 46.2 17.5895C43.8202 17.1158 41.3769 16.6421 36.5221 16.6421C31.6673 16.6421 29.224 17.1158 26.8442 17.5895C24.6231 18.0316 22.5288 18.4421 18.2452 18.4421C13.9615 18.4421 11.8356 18.0316 9.64615 17.5895C8.53558 17.3684 7.39327 17.1474 5.99712 16.9579V13.9263C6.94904 14.0526 7.77404 14.2105 8.59904 14.4V14.3684Z" fill="white"/>
</svg>
