<?xml version="1.0" encoding="UTF-8"?>
<svg width="86px" height="86px" viewBox="0 0 86 86" version="1.1" xmlns="http://www.w3.org/2000/svg" xmlns:xlink="http://www.w3.org/1999/xlink">
    <title>14_cleaning-mode</title>
    <defs>
        <polygon id="path-1" points="0 85.3333312 85.3333312 85.3333312 85.3333312 0 0 0"></polygon>
    </defs>
    <g id="Page-1" stroke="none" stroke-width="1" fill="none" fill-rule="evenodd">
        <g id="14_cleaning-mode" transform="translate(0.000000, 0.000000)">
            <g id="g62-Clipped" transform="translate(42.666666, 42.666666) scale(-1, 1) rotate(-180.000000) translate(-42.666666, -42.666666) ">
                <mask id="mask-2" fill="white">
                    <use xlink:href="#path-1"></use>
                </mask>
                <g id="path64"></g>
                <g id="g62" mask="url(#mask-2)">
                    <g transform="translate(5.333467, 0.000000)">
                        <g id="g68" transform="translate(0.000000, 37.333332)">
                            <path d="M28.246666,48 L19.7479995,48 C19.7479995,37.1079991 10.8893331,28.246666 0,28.246666 L0,19.7479995 C10.8893331,19.7479995 19.7479995,10.8893331 19.7479995,0 L28.246666,0 C28.246666,10.8893331 37.1079991,19.7479995 48,19.7479995 L48,28.246666 C37.1079991,28.246666 28.246666,37.1079991 28.246666,48 M24.5839994,43.9999999 C26.2693327,34.1013325 34.1013325,26.2693327 43.9999999,24.5826661 L43.9999999,23.4119994 C34.1013325,21.7253328 26.2693327,13.8959997 24.5839994,3.9999999 L23.4119994,3.9999999 C21.7253328,13.8959997 13.8959997,21.7253328 3.9999999,23.4106661 L3.9999999,24.5839994 C13.8959997,26.2693327 21.7266661,34.1013325 23.4119994,43.9999999 L24.5839994,43.9999999 Z" id="path70" fill="#000000" fill-rule="nonzero"></path>
                        </g>
                        <g id="g72" transform="translate(5.332533, 0.000000)">
                            <path d="M15.6933329,26.666666 L10.9719997,26.666666 C10.9719997,20.6159995 6.05066652,15.6919996 0,15.6919996 L0,10.9706664 C6.05066652,10.9706664 10.9719997,6.04933318 10.9719997,0 L15.6933329,0 C15.6933329,6.04933318 20.6159995,10.9706664 26.666666,10.9706664 L26.666666,15.6919996 C20.6159995,15.6919996 15.6933329,20.6159995 15.6933329,26.666666 M13.333333,19.8573328 C14.7679996,17.0586662 17.0586662,14.7666663 19.8586662,13.3319997 C17.0586662,11.897333 14.7679996,9.60666643 13.333333,6.80799983 C11.897333,9.60666643 9.60799976,11.897333 6.80799983,13.3319997 C9.60799976,14.7666663 11.897333,17.0586662 13.333333,19.8573328" id="path74" fill="#000000" fill-rule="nonzero"></path>
                        </g>
                        <g id="g76" transform="translate(42.667066, 10.666666)">
                            <path d="M18.8306662,32 L13.165333,32 C13.165333,24.738666 7.25866649,18.8306662 0,18.8306662 L0,13.165333 C7.25866649,13.165333 13.165333,7.25999982 13.165333,0 L18.8306662,0 C18.8306662,7.25999982 24.738666,13.165333 32,13.165333 L32,18.8306662 C24.738666,18.8306662 18.8306662,24.738666 18.8306662,32 M15.9973329,25.7759994 C17.7426662,21.3066661 21.3066661,17.7426662 25.774666,15.9986663 C21.3066661,14.2546663 17.7426662,10.6906664 15.9973329,6.22266651 C14.2546663,10.6906664 10.6906664,14.2546663 6.22266651,15.9986663 C10.6906664,17.7426662 14.2546663,21.3066661 15.9973329,25.7759994" id="path78" fill="#000000" fill-rule="nonzero"></path>
                        </g>
                    </g>
                </g>
            </g>
        </g>
    </g>
</svg>