<svg width="21" height="20" viewBox="0 0 21 20" fill="none" xmlns="http://www.w3.org/2000/svg">
<path d="M6.62603 10.0005C6.61788 10.2466 6.65829 10.4919 6.74495 10.7224C6.8316 10.9528 6.9628 11.164 7.13106 11.3438C7.29932 11.5235 7.50134 11.6684 7.72558 11.7701C7.94983 11.8718 8.19191 11.9283 8.438 11.9365C8.6841 11.9446 8.92939 11.9042 9.15986 11.8176C9.39034 11.7309 9.60149 11.5997 9.78126 11.4314C9.96103 11.2632 10.1059 11.0612 10.2076 10.8369C10.3093 10.6127 10.3658 10.3706 10.374 10.1245C10.3821 9.8784 10.3417 9.63311 10.2551 9.40264C10.1684 9.17216 10.0372 8.96101 9.86894 8.78124C9.70068 8.60147 9.49866 8.4566 9.27442 8.3549C9.05017 8.2532 8.80809 8.19667 8.562 8.18853C8.3159 8.18038 8.07061 8.22079 7.84014 8.30745C7.60966 8.3941 7.39851 8.5253 7.21874 8.69356C7.03897 8.86182 6.8941 9.06384 6.7924 9.28808C6.6907 9.51233 6.63417 9.75441 6.62603 10.0005Z" stroke="white" stroke-width="1.5" stroke-linecap="round" stroke-linejoin="round"/>
<path d="M7.46577 1.62485C8.10173 1.24062 8.89827 1.24062 9.53423 1.62485L15.0342 4.94776C15.6337 5.30992 16 5.95925 16 6.6596V13.4654C16 14.1658 15.6337 14.8151 15.0342 15.1772L9.53423 18.5002C8.89827 18.8844 8.10173 18.8844 7.46577 18.5002L1.96577 15.1772C1.36633 14.8151 1 14.1658 1 13.4654V6.6596C1 5.95925 1.36633 5.30992 1.96577 4.94776L7.46577 1.62485Z" stroke="white" stroke-width="1.5" stroke-linejoin="round"/>
</svg>
