<svg width="13" height="12" viewBox="0 0 13 12" fill="none" xmlns="http://www.w3.org/2000/svg">
<path d="M7.80952 9.80952L9 11L11.8571 8.14285" stroke="white" stroke-width="1.5" stroke-linecap="round" stroke-linejoin="round"/>
<path d="M3.28688 3.07201C3.27757 3.35326 3.32376 3.63358 3.42279 3.89699C3.52182 4.16039 3.67177 4.4017 3.86406 4.60716C4.05636 4.81261 4.28724 4.97818 4.54352 5.0944C4.7998 5.21063 5.07646 5.27524 5.35771 5.28454C5.63896 5.29385 5.91929 5.24766 6.18269 5.14863C6.44609 5.0496 6.68741 4.89965 6.89286 4.70736C7.09832 4.51506 7.26388 4.28418 7.38011 4.0279C7.49633 3.77162 7.56094 3.49496 7.57025 3.21371C7.57955 2.93246 7.53337 2.65213 7.43434 2.38873C7.3353 2.12533 7.18536 1.88401 6.99306 1.67856C6.80077 1.4731 6.56989 1.30754 6.31361 1.19131C6.05733 1.07509 5.78066 1.01048 5.49941 1.00117C5.21816 0.991867 4.93784 1.03805 4.67443 1.13708C4.41103 1.23612 4.16972 1.38606 3.96426 1.57836C3.75881 1.77065 3.59324 2.00153 3.47702 2.25781C3.36079 2.51409 3.29618 2.79076 3.28688 3.07201Z" stroke="white" stroke-width="1.5" stroke-linecap="round" stroke-linejoin="round"/>
<path d="M5.42857 8.14285C4.51109 8.14285 3.61423 8.4143 2.85137 8.92287C2.08852 9.43143 1.49395 10.1543 1.14285 11" stroke="white" stroke-width="1.5" stroke-linecap="round" stroke-linejoin="round"/>
</svg>
