<svg width="36" height="50" viewBox="0 0 36 50" fill="none" xmlns="http://www.w3.org/2000/svg">
<path d="M5.47826 15.0385C8.98264 12.4608 13.3131 10.9375 18 10.9375C22.6869 10.9375 27.0174 12.4608 30.5217 15.0385L30.5217 2.34376C30.5217 1.57158 30.1407 0.848945 29.5031 0.411784C28.8655 -0.0253771 28.0531 -0.120962 27.3311 0.156235L18 3.73888L8.66891 0.156233C7.94694 -0.120964 7.13453 -0.025379 6.4969 0.411782C5.85927 0.848943 5.47826 1.57158 5.47826 2.34376V15.0385Z" fill="#C4A6B5"/>
<path fill-rule="evenodd" clip-rule="evenodd" d="M36 32.0313C36 41.9551 27.9411 50 18 50C8.05887 50 0 41.9551 0 32.0313C0 22.1074 8.05888 14.0625 18 14.0625C27.9411 14.0625 36 22.1074 36 32.0313ZM19.9679 28.7024L18.5954 24.4857C18.408 23.9098 17.592 23.9098 17.4046 24.4857L16.0321 28.7024C15.9483 28.9599 15.7079 29.1342 15.4366 29.1342H10.9952C10.3887 29.1342 10.1366 29.909 10.6272 30.2649L14.2204 32.8709C14.4398 33.0301 14.5317 33.3122 14.4478 33.5697L13.0754 37.7864C12.888 38.3622 13.5482 38.841 14.0388 38.4852L17.632 35.8791C17.8514 35.7199 18.1486 35.7199 18.368 35.8791L21.9612 38.4852C22.4518 38.841 23.112 38.3622 22.9246 37.7864L21.5522 33.5697C21.4683 33.3122 21.5602 33.0301 21.7796 32.8709L25.3728 30.2649C25.8634 29.909 25.6113 29.1342 25.0048 29.1342H20.5634C20.2921 29.1342 20.0517 28.9599 19.9679 28.7024Z" fill="#C4A6B5"/>
</svg>
