<svg width="21" height="20" viewBox="0 0 21 20" fill="none" xmlns="http://www.w3.org/2000/svg">
<path d="M10.2861 17.9905C10.3848 17.9905 10.4851 17.9674 10.5871 17.9213C10.6889 17.8751 10.7694 17.8225 10.8284 17.7635L18.8264 9.76552C19.052 9.53985 19.2219 9.29877 19.3361 9.04227C19.4501 8.78593 19.5071 8.51677 19.5071 8.23477C19.5071 7.94243 19.4501 7.66102 19.3361 7.39052C19.2219 7.11985 19.052 6.87685 18.8264 6.66152L14.8264 2.66152C14.611 2.43585 14.3777 2.27077 14.1264 2.16627C13.8752 2.06193 13.6034 2.00977 13.3111 2.00977C13.0291 2.00977 12.7583 2.06193 12.4986 2.16627C12.2389 2.27077 11.9995 2.43585 11.7804 2.66152L11.2071 3.23477L13.0571 5.10002C13.2814 5.31418 13.4472 5.55843 13.5544 5.83277C13.6614 6.1071 13.7149 6.39168 13.7149 6.68652C13.7149 7.29685 13.511 7.80585 13.1034 8.21352C12.6957 8.62118 12.1867 8.82502 11.5764 8.82502C11.2815 8.82502 10.9959 8.77627 10.7196 8.67877C10.4434 8.58143 10.1983 8.42568 9.9841 8.21152L8.08985 6.33277L3.74385 10.6788C3.66818 10.7544 3.61143 10.8391 3.5736 10.9328C3.53577 11.0263 3.51685 11.1224 3.51685 11.2213C3.51685 11.4058 3.57968 11.5634 3.70535 11.6943C3.83102 11.8251 3.9861 11.8905 4.1706 11.8905C4.26943 11.8905 4.36977 11.8674 4.4716 11.8213C4.5736 11.7751 4.6541 11.7225 4.7131 11.6635L7.9976 8.37902L9.05135 9.43277L5.7821 12.7173C5.7066 12.7929 5.64993 12.8776 5.6121 12.9713C5.57427 13.0648 5.55535 13.1609 5.55535 13.2598C5.55535 13.4379 5.61977 13.5914 5.7486 13.7203C5.87743 13.8491 6.03093 13.9135 6.2091 13.9135C6.30793 13.9135 6.40827 13.8904 6.5101 13.8443C6.6121 13.7981 6.69252 13.7455 6.75135 13.6865L10.1514 10.302L11.2054 11.3558L7.8206 14.7558C7.75143 14.8148 7.69635 14.8952 7.65535 14.997C7.61435 15.099 7.59385 15.1994 7.59385 15.298C7.59385 15.4763 7.65827 15.6299 7.7871 15.7588C7.91593 15.8876 8.06943 15.952 8.2476 15.952C8.34627 15.952 8.44243 15.9331 8.5361 15.8953C8.6296 15.8574 8.71418 15.8007 8.78985 15.725L12.1899 12.3405L13.2439 13.3943L9.84385 16.7943C9.76818 16.8699 9.71143 16.9578 9.6736 17.0578C9.63577 17.1578 9.61685 17.2539 9.61685 17.3463C9.61685 17.5308 9.68543 17.6843 9.8226 17.8068C9.95977 17.9293 10.1143 17.9905 10.2861 17.9905ZM10.2706 19.4903C9.70527 19.4903 9.21235 19.2942 8.79185 18.902C8.37135 18.5097 8.15152 18.0212 8.13235 17.4365C7.56568 17.398 7.09227 17.1968 6.7121 16.8328C6.33193 16.4686 6.12585 15.9903 6.09385 15.398C5.50152 15.3597 5.02268 15.1527 4.65735 14.777C4.29185 14.4013 4.09627 13.9288 4.0706 13.3595C3.47577 13.3212 2.98477 13.1055 2.5976 12.7125C2.21043 12.3195 2.01685 11.8224 2.01685 11.2213C2.01685 10.9264 2.07293 10.6376 2.1851 10.3548C2.29727 10.0721 2.46043 9.82377 2.6746 9.60977L8.08985 4.20977L11.0189 7.13852C11.0777 7.20768 11.1549 7.26285 11.2503 7.30402C11.346 7.34502 11.4496 7.36552 11.5611 7.36552C11.7431 7.36552 11.9001 7.30527 12.0321 7.18477C12.1643 7.06427 12.2304 6.90652 12.2304 6.71152C12.2304 6.60002 12.2099 6.49652 12.1688 6.40102C12.1277 6.30552 12.0725 6.22827 12.0034 6.16927L8.4956 2.66152C8.28027 2.43585 8.04535 2.27077 7.79085 2.16627C7.53635 2.06193 7.26293 2.00977 6.9706 2.00977C6.6886 2.00977 6.42102 2.06193 6.16785 2.16627C5.91452 2.27077 5.6751 2.43585 5.4496 2.66152L2.16485 5.96152C1.98285 6.14352 1.83385 6.3586 1.71785 6.60677C1.60185 6.85477 1.5336 7.10768 1.5131 7.36552C1.49243 7.57835 1.50202 7.78893 1.54185 7.99727C1.58152 8.2056 1.65135 8.40143 1.75135 8.58477L0.647601 9.68852C0.421934 9.36285 0.252101 8.9981 0.138101 8.59427C0.0239343 8.19043 -0.0228991 7.78085 -0.00239908 7.36552C0.0181009 6.90518 0.121934 6.4606 0.309101 6.03177C0.496268 5.60293 0.758434 5.21993 1.0956 4.88277L4.3706 1.60777C4.7451 1.2436 5.15252 0.969598 5.59285 0.785765C6.03318 0.601765 6.49568 0.509766 6.98035 0.509766C7.46485 0.509766 7.92568 0.601765 8.36285 0.785765C8.80018 0.969598 9.20085 1.2436 9.56485 1.60777L10.1381 2.18077L10.7111 1.60777C11.0854 1.2436 11.4912 0.969598 11.9284 0.785765C12.3655 0.601765 12.8264 0.509766 13.3111 0.509766C13.7958 0.509766 14.2583 0.601765 14.6986 0.785765C15.1389 0.969598 15.5412 1.2436 15.9054 1.60777L19.8804 5.58277C20.2444 5.94693 20.5232 6.36135 20.7169 6.82602C20.9104 7.29068 21.0071 7.76535 21.0071 8.25002C21.0071 8.73468 20.9104 9.1956 20.7169 9.63277C20.5232 10.0699 20.2444 10.4705 19.8804 10.8345L11.8821 18.8173C11.6616 19.0378 11.4133 19.2051 11.1371 19.3193C10.8608 19.4333 10.5719 19.4903 10.2706 19.4903Z" fill="#9F9F9F"/>
</svg>
