<svg width="25" height="24" viewBox="0 0 25 24" fill="none" xmlns="http://www.w3.org/2000/svg">
<path d="M4.02499 19.1966V10.3145C4.02499 9.73743 4.29142 9.19268 4.74692 8.8384L11.8769 3.29284C12.5522 2.76763 13.4978 2.76763 14.1731 3.29284L21.3031 8.8384C21.7586 9.19268 22.025 9.73743 22.025 10.3145V19.1966C22.025 20.2293 21.1878 21.0666 20.155 21.0666H16.525C16.2489 21.0666 16.025 20.8427 16.025 20.5666V16.9314C16.025 16.5805 15.9676 16.2256 15.7819 15.9279C15.5389 15.5384 15.2147 15.203 14.829 14.9459C14.295 14.5899 13.6672 14.3999 13.025 14.3999C12.3828 14.3999 11.755 14.5899 11.221 14.9459C10.8353 15.203 10.5111 15.5384 10.2681 15.9279C10.0824 16.2256 10.025 16.5805 10.025 16.9314V20.5666C10.025 20.8427 9.80114 21.0666 9.52499 21.0666H5.89499C4.86222 21.0666 4.02499 20.2293 4.02499 19.1966Z" fill="#00A7B5" stroke="#00A7B5" stroke-width="1.5" stroke-linecap="round" stroke-linejoin="round"/>
</svg>
