<svg width="30" height="30" viewBox="0 0 30 30" fill="none" xmlns="http://www.w3.org/2000/svg">
<path fill-rule="evenodd" clip-rule="evenodd" d="M11.875 6.5625C11.875 6.04473 11.4553 5.625 10.9375 5.625C10.4197 5.625 10 6.04473 10 6.5625V8.4375H9.0625C7.16402 8.4375 5.625 9.97652 5.625 11.875V20.9375C5.625 21.851 5.9813 22.6812 6.5625 23.2968V23.4375H6.70316C7.3188 24.0187 8.14904 24.375 9.0625 24.375H20.9375C21.851 24.375 22.6812 24.0187 23.2968 23.4375H23.4375V23.2968C24.0187 22.6812 24.375 21.851 24.375 20.9375V11.875C24.375 9.97652 22.836 8.4375 20.9375 8.4375H20V6.5625C20 6.04473 19.5803 5.625 19.0625 5.625C18.5447 5.625 18.125 6.04473 18.125 6.5625V8.4375H11.875V6.5625ZM20.9375 10.3125C21.8004 10.3125 22.5 11.0121 22.5 11.875V12.5H7.5V11.875C7.5 11.0121 8.19956 10.3125 9.0625 10.3125H20.9375Z" fill="#00A7B5"/>
</svg>
