<?xml version="1.0" encoding="UTF-8"?>
<svg width="119px" height="150px" viewBox="0 0 119 150" version="1.1" xmlns="http://www.w3.org/2000/svg" xmlns:xlink="http://www.w3.org/1999/xlink">
    <title>threeBottle</title>
    <g id="Page-1" stroke="none" stroke-width="1" fill="none" fill-rule="evenodd">
        <g id="threeBottle" transform="translate(2.000000, 0.000000)" fill-rule="nonzero">
            <rect id="Rectangle" fill="#FFFFFF" x="81.45" y="0" width="17.6791" height="7.57674" rx="1.26279"></rect>
            <path d="M65.6651,16.4164221 C65.6651,14.3241221 67.3612,12.6280221 69.4535,12.6280221 L111.126,12.6280221 C113.218,12.6280221 114.914,14.3241221 114.914,16.4164221 L114.914,138.907122 C114.914,140.999122 113.218,142.695122 111.126,142.695122 L69.4535,142.695122 C67.3612,142.695122 65.6651,140.999122 65.6651,138.907122 L65.6651,16.4164221 Z" id="Path" stroke="#FFFFFF" stroke-width="2.52558" fill="#28272C"></path>
            <rect id="Rectangle" fill="#FFFFFF" x="15.7849" y="0" width="17.6791" height="7.57674" rx="1.26279"></rect>
            <path d="M0,16.4164221 C0,14.3241221 1.69611,12.6280221 3.78838,12.6280221 L45.4605,12.6280221 C47.5527,12.6280221 49.2488,14.3241221 49.2488,16.4164221 L49.2488,138.907122 C49.2488,140.999122 47.5527,142.695122 45.4605,142.695122 L3.78838,142.695122 C1.69612,142.695122 0,140.999122 0,138.907122 L0,16.4164221 Z" id="Path" stroke="#FFFFFF" stroke-width="2.52558" fill="#28272C"></path>
            <rect id="Rectangle" fill="#FFFFFF" x="48.6174" y="5.05127207" width="17.6791" height="7.57674" rx="1.26279"></rect>
            <path d="M32.8325,21.4674221 C32.8325,19.3751221 34.5286,17.6790221 36.6209,17.6790221 L78.293,17.6790221 C80.3852,17.6790221 82.0814,19.3751221 82.0814,21.4674221 L82.0814,143.958122 C82.0814,146.050122 80.3852,147.746122 78.293,147.746122 L36.6209,147.746122 C34.5286,147.746122 32.8325,146.050122 32.8325,143.958122 L32.8325,21.4674221 Z" id="Path" stroke="#FFFFFF" stroke-width="2.52558" fill="#28272C"></path>
        </g>
    </g>
</svg>