<svg width="266" height="37" viewBox="0 0 266 37" fill="none" xmlns="http://www.w3.org/2000/svg">
<path d="M21.4563 21.4767C23.5877 21.894 25.7759 22.3113 30.124 22.3113C34.4721 22.3113 36.6603 21.894 38.7917 21.4767C40.781 21.0872 42.6567 20.7256 46.4932 20.7256C50.3298 20.7256 52.2338 21.0872 54.1947 21.4767C56.3261 21.894 58.5144 22.3113 62.8624 22.3113C67.2105 22.3113 69.3988 21.894 71.5302 21.4767C73.5195 21.0872 75.3951 20.7256 79.2317 20.7256C83.0682 20.7256 84.9723 21.0872 86.9332 21.4767C89.0362 21.894 91.196 22.3113 95.3736 22.3113C95.4872 22.3113 95.5725 22.2278 95.5725 22.1165V17.9158C95.5725 17.8045 95.4872 17.721 95.3736 17.721C91.6507 17.721 89.8035 17.3594 87.871 16.9699C85.7396 16.5526 83.5513 16.1353 79.2033 16.1353C74.8552 16.1353 72.6669 16.5526 70.5355 16.9699C68.5462 17.3594 66.6706 17.721 62.834 17.721C58.9975 17.721 57.0934 17.3594 55.1325 16.9699C53.0011 16.5526 50.8129 16.1353 46.4648 16.1353C42.1167 16.1353 39.9285 16.5526 37.7971 16.9699C35.8078 17.3594 33.9321 17.721 30.0956 17.721C26.259 17.721 24.355 17.3594 22.3941 16.9699C21.3994 16.7752 20.3763 16.5804 19.1259 16.4135V13.7428C19.9785 13.8541 20.7174 13.9932 21.4563 14.1601C23.5877 14.5774 25.7759 14.9947 30.124 14.9947C34.4721 14.9947 36.6603 14.5774 38.7917 14.1601C40.781 13.7707 42.6567 13.409 46.4932 13.409C50.3298 13.409 52.2338 13.7707 54.1947 14.1601C56.3261 14.5774 58.5144 14.9947 62.8624 14.9947C67.2105 14.9947 69.3988 14.5774 71.5302 14.1601C73.5195 13.7707 75.3951 13.409 79.2317 13.409C83.0682 13.409 84.9723 13.7707 86.9332 14.1601C89.0362 14.5774 91.196 14.9947 95.3736 14.9947C95.4872 14.9947 95.5725 14.9113 95.5725 14.8V10.5992C95.5725 10.488 95.4872 10.4045 95.3736 10.4045C91.6507 10.4045 89.8035 10.0428 87.871 9.65337C85.7396 9.23608 83.5513 8.81879 79.2033 8.81879C74.8552 8.81879 72.6669 9.23608 70.5355 9.65337C68.5462 10.0428 66.6706 10.4045 62.834 10.4045C58.9691 10.4045 57.0934 10.0428 55.1325 9.65337C53.0011 9.23608 50.8129 8.81879 46.4648 8.81879C42.1167 8.81879 39.9285 9.23608 37.7971 9.65337C35.8078 10.0428 33.9321 10.4045 30.0956 10.4045C26.2306 10.4045 24.355 10.0428 22.3941 9.65337C20.2911 9.23608 18.1313 8.81879 13.9537 8.81879C13.84 8.81879 13.7548 8.90225 13.7548 9.15262V12.797V28.0143C13.7548 27.9865 13.84 28.0699 13.9537 28.0699C17.6766 28.0699 19.5238 28.4316 21.4563 28.821C23.5877 29.2383 25.7759 29.6556 30.124 29.6556C34.4721 29.6556 36.6603 29.2383 38.7917 28.821C40.781 28.4316 42.6567 28.0699 46.4932 28.0699C50.3298 28.0699 52.2338 28.4316 54.1947 28.821C56.3261 29.2383 58.5144 29.6556 62.8624 29.6556C67.2105 29.6556 69.3988 29.2383 71.5302 28.821C73.5195 28.4316 75.3951 28.0699 79.2317 28.0699C83.0682 28.0699 84.9723 28.4316 86.9332 28.821C89.0362 29.2383 91.196 29.6556 95.3736 29.6556C95.4872 29.6556 95.5725 29.5722 95.5725 29.4609V25.2601C95.5725 25.1489 95.4872 25.0654 95.3736 25.0654C91.6507 25.0654 89.8035 24.7037 87.871 24.3143C85.7396 23.897 83.5513 23.4797 79.2033 23.4797C74.8552 23.4797 72.6669 23.897 70.5355 24.3143C68.5462 24.7037 66.6706 25.0654 62.834 25.0654C58.9975 25.0654 57.0934 24.7037 55.1325 24.3143C53.0011 23.897 50.8129 23.4797 46.4648 23.4797C42.1167 23.4797 39.9285 23.897 37.7971 24.3143C35.8078 24.7037 33.9321 25.0654 30.0956 25.0654C26.259 25.0654 24.355 24.7037 22.3941 24.3143C21.3994 24.1195 20.3763 23.9248 19.1259 23.7579V21.0872C19.9785 21.1985 20.7174 21.3376 21.4563 21.5045V21.4767Z" fill="white"/>
<path d="M176.31 20.8368C176.14 22.0609 175.372 22.5338 171.877 22.5338C168.381 22.5338 168.751 22.3391 168.154 21.8383C167.5 21.3098 167.358 20.3917 167.358 19.0564V18.9173C167.358 16.191 167.927 15.4398 171.849 15.4398C175.77 15.4398 176.168 15.9128 176.31 17.1368L179.209 17.0812C179.152 15.718 178.84 14.8556 178.243 14.2436C177.248 13.2699 175.486 12.9083 171.877 12.9083C165.994 12.9083 164.403 14.1601 164.403 18.7225V19.2511C164.403 21.6158 164.858 22.9789 165.909 23.8135C166.989 24.6759 168.779 25.0654 171.905 25.0654C175.031 25.0654 177.305 24.6759 178.3 23.7022C178.925 23.0902 179.209 22.2278 179.294 20.8925L176.396 20.8368H176.31Z" fill="white"/>
<path d="M135.643 22.3669H132.432V20.1413H142.435V17.7489H132.432V15.5511H134.108C136.24 15.5511 140.702 15.5511 143.231 15.5511H143.288V13.1586H129.505V13.2143C129.505 13.8819 129.505 14.4383 129.505 15.2451V22.1722C129.505 23.3962 129.505 24.0639 129.505 24.815V24.8707H143.43V22.3391H143.373C141.497 22.3391 137.831 22.3391 135.643 22.3391V22.3669Z" fill="white"/>
<path d="M244.686 12.9361C238.746 12.9361 237.127 14.188 237.127 18.7504V19.279C237.127 23.8414 238.746 25.0932 244.686 25.0932C250.625 25.0932 252.274 23.8414 252.274 19.279V18.7504C252.274 14.188 250.654 12.9361 244.686 12.9361ZM249.29 19.0842C249.29 21.8662 248.75 22.5617 244.686 22.5617C240.622 22.5617 240.082 21.8105 240.082 19.0842V18.9451C240.082 16.2188 240.65 15.4677 244.686 15.4677C248.721 15.4677 247.869 15.6624 248.494 16.1632C249.176 16.6917 249.29 17.6098 249.29 18.9451V19.0842Z" fill="white"/>
<path d="M215.329 13.2143V13.1586H212.374V13.2143C212.374 13.9098 212.374 14.4383 212.374 15.2451V17.6932H203.876V15.2451C203.876 14.4105 203.876 13.9098 203.876 13.2143V13.1586H200.921V13.2143C200.921 13.9098 200.921 14.4383 200.921 15.2451V22.1722C200.921 23.3684 200.921 24.0361 200.921 24.815V24.8707H203.876V24.815C203.876 24.0083 203.876 23.4797 203.876 22.1722V20.1692H212.374V22.1722C212.374 23.3684 212.374 24.0361 212.374 24.815V24.8707H215.329V24.815C215.329 24.0083 215.329 23.4797 215.329 22.1722V15.2451C215.329 14.4105 215.329 13.9098 215.329 13.2143Z" fill="white"/>
</svg>
