<svg width="18" height="20" viewBox="0 0 18 20" fill="none" xmlns="http://www.w3.org/2000/svg">
<path d="M4.48905 2.36405C5.64013 1.21298 7.484 0.625 9 0.625C10.0257 0.625 10.865 0.769188 11.6011 1.07901C12.3402 1.39006 12.9128 1.84201 13.4349 2.36405C14.522 3.45117 15.25 4.95281 15.25 6.5625V13.125H16.8125C17.3303 13.125 17.75 13.5447 17.75 14.0625C17.75 14.5803 17.3303 15 16.8125 15H1.1875C0.669733 15 0.25 14.5803 0.25 14.0625C0.25 13.5447 0.669733 13.125 1.1875 13.125H2.75V6.5625C2.75 4.98778 3.37556 3.47755 4.48905 2.36405Z" fill="#00A7B5"/>
<path d="M8.99994 19.375C8.2129 19.375 7.44336 19.1422 6.78863 18.7057C6.13387 18.2692 5.62322 17.6485 5.32159 16.922C5.12307 16.4438 5.34978 15.8952 5.82798 15.6967C6.30618 15.4981 6.85476 15.7248 7.05329 16.203C7.21248 16.5865 7.48221 16.9146 7.82869 17.1456C8.17519 17.3766 8.5828 17.5 8.99994 17.5C9.41708 17.5 9.82469 17.3766 10.1712 17.1456C10.5177 16.9146 10.7874 16.5865 10.9466 16.203C11.1451 15.7248 11.6937 15.4981 12.1719 15.6967C12.6501 15.8952 12.8768 16.4438 12.6783 16.922C12.3767 17.6485 11.866 18.2692 11.2113 18.7057C10.5565 19.1422 9.78698 19.375 8.99994 19.375Z" fill="#00A7B5"/>
</svg>
