<svg width="15" height="20" viewBox="0 0 15 20" fill="none" xmlns="http://www.w3.org/2000/svg">
<path d="M0.722637 4.9977C0.727451 5.02221 0.734017 5.04628 0.74102 5.07035C0.741896 5.07386 0.742771 5.07736 0.743646 5.08042C0.751087 5.1045 0.759841 5.12813 0.769033 5.15177C0.770346 5.15483 0.771221 5.1579 0.772535 5.16096C0.781726 5.18284 0.792231 5.20429 0.803174 5.2253C0.805362 5.22968 0.807113 5.23405 0.809739 5.23843C0.819806 5.25769 0.831624 5.27564 0.843004 5.29402C0.846944 5.30015 0.850007 5.30628 0.853947 5.31197C0.864889 5.3286 0.877583 5.34436 0.889838 5.36011C0.895091 5.36712 0.899905 5.37412 0.905158 5.38068C0.920915 5.39994 0.937985 5.41833 0.955493 5.43627C0.957682 5.4389 0.95987 5.44152 0.962496 5.44371L4.41332 8.89323C4.58446 9.06393 4.80813 9.14972 5.03223 9.14972C5.25633 9.14972 5.48044 9.06437 5.65114 8.89323C5.99298 8.55138 5.99298 7.99726 5.65114 7.65541L3.69506 5.70021H12.3996C12.8833 5.70021 13.275 5.30846 13.275 4.82481C13.275 4.34115 12.8833 3.9494 12.3996 3.9494H3.69506L5.6507 1.9942C5.99255 1.65235 5.99255 1.09823 5.6507 0.756383C5.30886 0.414539 4.75473 0.414539 4.41289 0.756383L0.962496 4.20633C0.942362 4.22647 0.923103 4.24792 0.90472 4.27024C0.901218 4.27462 0.898154 4.27899 0.894653 4.28337C0.880209 4.30132 0.866202 4.3197 0.853509 4.33896C0.850883 4.34333 0.848257 4.34771 0.84563 4.35209C0.832937 4.37179 0.820682 4.39192 0.809301 4.41293C0.807551 4.41599 0.806675 4.41906 0.804924 4.42168C0.793106 4.44401 0.782164 4.46677 0.772535 4.4904C0.771659 4.49215 0.771221 4.4939 0.770784 4.49565C0.760717 4.52017 0.751525 4.54511 0.743646 4.57094C0.743209 4.57313 0.742771 4.57488 0.741896 4.57707C0.734455 4.60202 0.727889 4.62784 0.722637 4.65366C0.721324 4.65979 0.720886 4.66636 0.719573 4.67249C0.715634 4.69437 0.712132 4.71626 0.709943 4.73814C0.707317 4.76615 0.705566 4.7946 0.705566 4.82349C0.705566 4.82437 0.705566 4.8248 0.705566 4.82568C0.705566 4.85501 0.70688 4.88433 0.709943 4.91322C0.712132 4.93423 0.715634 4.9548 0.719135 4.97537C0.720448 4.98281 0.721324 4.99069 0.722637 4.99813V4.9977Z" fill="#00A7B5"/>
<path d="M14.8007 15.7321C14.8056 15.7265 14.8095 15.7203 14.8143 15.7142C14.8274 15.6976 14.8401 15.6809 14.852 15.6634C14.8555 15.6582 14.8585 15.6525 14.8616 15.6472C14.8734 15.6284 14.8852 15.6096 14.8962 15.5899C14.8984 15.586 14.8997 15.582 14.9019 15.5785C14.9132 15.5571 14.9237 15.5352 14.9329 15.5124C14.9338 15.5098 14.9347 15.5072 14.9356 15.505C14.9452 15.4809 14.9539 15.4568 14.9618 15.4319C14.9627 15.4293 14.9631 15.4262 14.964 15.4231C14.971 15.3986 14.9776 15.3741 14.9828 15.3487C14.9841 15.3417 14.9846 15.3347 14.9859 15.3277C14.9894 15.3067 14.9933 15.2853 14.9955 15.2638C14.9986 15.2349 14.9999 15.2056 14.9999 15.1763C14.9999 15.1469 14.9986 15.1176 14.9955 15.0887C14.9933 15.0673 14.9898 15.0458 14.9859 15.0248C14.9846 15.0178 14.9841 15.0108 14.9828 15.0038C14.978 14.9784 14.9715 14.9539 14.964 14.9294C14.9631 14.9268 14.9627 14.9237 14.9618 14.9206C14.9544 14.8957 14.9452 14.8716 14.9356 14.8476C14.9347 14.8449 14.9338 14.8423 14.9329 14.8401C14.9237 14.8174 14.9128 14.7959 14.9019 14.774C14.9001 14.7701 14.8984 14.7661 14.8962 14.7626C14.8857 14.7429 14.8738 14.7241 14.862 14.7053C14.8585 14.7 14.8555 14.6944 14.852 14.6891C14.8401 14.6716 14.8274 14.655 14.8143 14.6383C14.8095 14.6322 14.8056 14.6261 14.8007 14.6204C14.7828 14.5985 14.7635 14.5775 14.7438 14.5574C14.7438 14.5574 14.7438 14.5574 14.7434 14.5569L11.2926 11.107C10.9507 10.7651 10.3962 10.7651 10.0548 11.107C9.71292 11.4488 9.71292 12.0029 10.0548 12.3448L12.0108 14.3H3.30631C2.82265 14.3 2.43091 14.6917 2.43091 15.1754C2.43091 15.659 2.82265 16.0508 3.30631 16.0508H12.0108L10.0548 18.006C9.71292 18.3478 9.71292 18.902 10.0548 19.2438C10.2259 19.415 10.4496 19.5003 10.6737 19.5003C10.8978 19.5003 11.1214 19.415 11.2926 19.2438L14.7434 15.7939C14.7434 15.7939 14.7434 15.7939 14.7438 15.7934C14.764 15.7733 14.7828 15.7523 14.8007 15.7304V15.7321Z" fill="#00A7B5"/>
</svg>
