<svg width="119" height="149" viewBox="0 0 119 149" fill="none" xmlns="http://www.w3.org/2000/svg">
<rect x="83.493" y="-0.00012207" width="17.6791" height="7.57674" rx="1.26279" fill="white"/>
<path d="M67.7081 16.4163C67.7081 14.324 69.4042 12.6279 71.4965 12.6279H113.169C115.261 12.6279 116.957 14.324 116.957 16.4163V138.907C116.957 140.999 115.261 142.695 113.169 142.695H71.4965C69.4042 142.695 67.7081 140.999 67.7081 138.907V16.4163Z" fill="#28272C" stroke="white" stroke-width="2.52558"/>
<rect x="17.8279" y="-0.00012207" width="17.6791" height="7.57674" rx="1.26279" fill="white"/>
<path d="M2.043 16.4163C2.043 14.324 3.73911 12.6279 5.83138 12.6279H47.5035C49.5957 12.6279 51.2918 14.324 51.2918 16.4163V138.907C51.2918 140.999 49.5957 142.695 47.5035 142.695H5.83138C3.73912 142.695 2.043 140.999 2.043 138.907V16.4163Z" fill="#28272C" stroke="white" stroke-width="2.52558"/>
<rect x="50.6604" y="5.05115" width="17.6791" height="7.57674" rx="1.26279" fill="white"/>
<path d="M34.8755 21.4673C34.8755 19.375 36.5716 17.6789 38.6639 17.6789H80.336C82.4282 17.6789 84.1244 19.375 84.1244 21.4673V143.958C84.1244 146.05 82.4282 147.746 80.336 147.746H38.6639C36.5716 147.746 34.8755 146.05 34.8755 143.958V21.4673Z" fill="#28272C" stroke="white" stroke-width="2.52558"/>
<path d="M59.4758 94.664C55.1089 94.664 52.6568 92.6389 52.6568 88.6714V87.9551H55.3844V88.6852C55.3844 91.096 56.4451 92.4323 59.4758 92.4323C62.4928 92.4323 63.5948 91.096 63.5948 88.7128V88.5475C63.5948 86.2193 62.2035 85.1999 59.5172 85.1999H57.561V82.8993H59.5172C61.8729 82.8993 63.3607 82.0177 63.3607 79.7309V79.6207C63.3607 77.5267 62.3412 76.2593 59.5034 76.2593C56.7069 76.2593 55.6737 77.4441 55.6737 79.7447V80.4472H52.9461V79.7447C52.9461 76.1078 55.0951 74.0276 59.5034 74.0276C63.953 74.0276 66.0194 75.9838 66.0194 79.4416V79.5518C66.0194 81.9212 65.0551 83.4917 62.8509 84.0152V84.0427C65.1515 84.58 66.2674 86.3846 66.2674 88.6852V88.7679C66.2674 92.7491 63.8428 94.664 59.4758 94.664Z" fill="white"/>
</svg>
