<svg width="85" height="149" viewBox="0 0 85 149" fill="none" xmlns="http://www.w3.org/2000/svg">
<rect x="17.2442" y="6.10352e-05" width="17.6791" height="7.57674" rx="1.26279" fill="white"/>
<path d="M1.45932 16.4164C1.45932 14.3241 3.15543 12.628 5.2477 12.628H46.9198C49.012 12.628 50.7082 14.3241 50.7082 16.4164V138.907C50.7082 140.999 49.012 142.695 46.9198 142.695H5.2477C3.15544 142.695 1.45932 140.999 1.45932 138.907V16.4164Z" fill="#28272C" stroke="white" stroke-width="2.52558"/>
<rect x="50.0767" y="5.05115" width="17.6791" height="7.57674" rx="1.26279" fill="white"/>
<path d="M34.2918 21.4675C34.2918 19.3752 35.988 17.6791 38.0802 17.6791H79.7523C81.8446 17.6791 83.5407 19.3752 83.5407 21.4675V143.958C83.5407 146.05 81.8446 147.747 79.7523 147.747H38.0802C35.988 147.747 34.2918 146.05 34.2918 143.958V21.4675Z" fill="#28272C" stroke="white" stroke-width="2.52558"/>
<path d="M52.443 91.11C52.443 88.6441 53.1318 86.6052 56.7273 85.021L60.0611 83.547C61.9484 82.7067 62.8576 81.7837 62.8576 79.7035V79.6346C62.8576 77.6784 61.9484 76.2595 58.9866 76.2595C55.9008 76.2595 55.1293 77.8575 55.1293 79.8275V81.1224H52.443V79.8275C52.443 76.0116 54.8125 74.0278 58.9866 74.0278C63.1193 74.0278 65.5439 75.9014 65.5439 79.6346V79.7035C65.5439 82.5138 64.4005 84.1531 61.2871 85.5445L57.9258 87.0461C56.011 87.9002 55.1431 88.892 55.1431 91.11V91.9916H65.5439V94.4024H52.443V91.11Z" fill="white"/>
</svg>
