<svg width="27" height="17" viewBox="0 0 27 17" fill="none" xmlns="http://www.w3.org/2000/svg">
<path d="M6.66667 14.4667C5.57778 14.4667 4.71111 14.7111 4.06667 15.2C3.42222 15.6889 2.52222 16.0333 1.36667 16.2333C0.988889 16.3 0.666667 16.2111 0.4 15.9667C0.133333 15.7222 0 15.4111 0 15.0333C0 14.6556 0.127778 14.3389 0.383333 14.0833C0.638889 13.8278 0.955555 13.6444 1.33333 13.5333C2.13333 13.2889 2.88889 12.95 3.6 12.5167C4.31111 12.0833 5.33333 11.8667 6.66667 11.8667C7.51111 11.8667 8.20555 11.9611 8.75 12.15C9.29444 12.3389 9.8 12.55 10.2667 12.7833C10.7333 13.0167 11.2 13.2333 11.6667 13.4333C12.1333 13.6333 12.6889 13.7333 13.3333 13.7333C13.9778 13.7333 14.5333 13.6333 15 13.4333C15.4667 13.2333 15.9333 13.0167 16.4 12.7833C16.8667 12.55 17.3778 12.3389 17.9333 12.15C18.4889 11.9611 19.1778 11.8667 20 11.8667C21.3333 11.8667 22.3556 12.0833 23.0667 12.5167C23.7778 12.95 24.5333 13.2889 25.3333 13.5333C25.7111 13.6444 26.0278 13.8278 26.2833 14.0833C26.5389 14.3389 26.6667 14.6556 26.6667 15.0333C26.6667 15.4111 26.5333 15.7222 26.2667 15.9667C26 16.2111 25.6778 16.3 25.3 16.2333C24.1444 16.0333 23.2444 15.6889 22.6 15.2C21.9556 14.7111 21.0889 14.4667 20 14.4667C19.3556 14.4667 18.8056 14.5611 18.35 14.75C17.8944 14.9389 17.4389 15.15 16.9833 15.3833C16.5278 15.6167 16.0222 15.8333 15.4667 16.0333C14.9111 16.2333 14.2 16.3333 13.3333 16.3333C12.4667 16.3333 11.75 16.2333 11.1833 16.0333C10.6167 15.8333 10.1056 15.6167 9.65 15.3833C9.19444 15.15 8.74444 14.9389 8.3 14.75C7.85556 14.5611 7.31111 14.4667 6.66667 14.4667ZM6.66667 8.53333C5.57778 8.53333 4.71111 8.77778 4.06667 9.26667C3.42222 9.75556 2.52222 10.1 1.36667 10.3C0.988889 10.3667 0.666667 10.2778 0.4 10.0333C0.133333 9.78889 0 9.47778 0 9.1C0 8.72222 0.127778 8.40556 0.383333 8.15C0.638889 7.89444 0.955555 7.71111 1.33333 7.6C2.13333 7.35556 2.88889 7.01667 3.6 6.58333C4.31111 6.15 5.33333 5.93333 6.66667 5.93333C7.51111 5.93333 8.20555 6.02778 8.75 6.21667C9.29444 6.40556 9.8 6.61667 10.2667 6.85C10.7333 7.08333 11.2 7.3 11.6667 7.5C12.1333 7.7 12.6889 7.8 13.3333 7.8C13.9778 7.8 14.5333 7.7 15 7.5C15.4667 7.3 15.9333 7.08333 16.4 6.85C16.8667 6.61667 17.3778 6.40556 17.9333 6.21667C18.4889 6.02778 19.1778 5.93333 20 5.93333C21.3333 5.93333 22.3556 6.15 23.0667 6.58333C23.7778 7.01667 24.5333 7.35556 25.3333 7.6C25.7111 7.71111 26.0278 7.89444 26.2833 8.15C26.5389 8.40556 26.6667 8.72222 26.6667 9.1C26.6667 9.47778 26.5333 9.78889 26.2667 10.0333C26 10.2778 25.6778 10.3667 25.3 10.3C24.1444 10.1 23.2444 9.75556 22.6 9.26667C21.9556 8.77778 21.0889 8.53333 20 8.53333C19.3778 8.53333 18.8389 8.62778 18.3833 8.81667C17.9278 9.00556 17.4722 9.21667 17.0167 9.45C16.5611 9.68333 16.05 9.9 15.4833 10.1C14.9167 10.3 14.2 10.4 13.3333 10.4C12.4667 10.4 11.75 10.3 11.1833 10.1C10.6167 9.9 10.1056 9.68333 9.65 9.45C9.19444 9.21667 8.74444 9.00556 8.3 8.81667C7.85556 8.62778 7.31111 8.53333 6.66667 8.53333ZM6.66667 2.6C5.57778 2.6 4.71111 2.84444 4.06667 3.33333C3.42222 3.82222 2.52222 4.16667 1.36667 4.36667C0.988889 4.43333 0.666667 4.34444 0.4 4.1C0.133333 3.85556 0 3.54444 0 3.16667C0 2.78889 0.127778 2.47222 0.383333 2.21667C0.638889 1.96111 0.955555 1.77778 1.33333 1.66667C2.13333 1.42222 2.88889 1.08333 3.6 0.65C4.31111 0.216667 5.33333 0 6.66667 0C7.51111 0 8.20555 0.0944445 8.75 0.283333C9.29444 0.472222 9.8 0.683333 10.2667 0.916667C10.7333 1.15 11.2 1.36667 11.6667 1.56667C12.1333 1.76667 12.6889 1.86667 13.3333 1.86667C13.9778 1.86667 14.5333 1.76667 15 1.56667C15.4667 1.36667 15.9333 1.15 16.4 0.916667C16.8667 0.683333 17.3778 0.472222 17.9333 0.283333C18.4889 0.0944445 19.1778 0 20 0C21.3333 0 22.3556 0.216667 23.0667 0.65C23.7778 1.08333 24.5333 1.42222 25.3333 1.66667C25.7111 1.77778 26.0278 1.96111 26.2833 2.21667C26.5389 2.47222 26.6667 2.78889 26.6667 3.16667C26.6667 3.54444 26.5333 3.85556 26.2667 4.1C26 4.34444 25.6778 4.43333 25.3 4.36667C24.1444 4.16667 23.2444 3.82222 22.6 3.33333C21.9556 2.84444 21.0889 2.6 20 2.6C19.3778 2.6 18.8389 2.69444 18.3833 2.88333C17.9278 3.07222 17.4722 3.28333 17.0167 3.51667C16.5611 3.75 16.05 3.96667 15.4833 4.16667C14.9167 4.36667 14.2 4.46667 13.3333 4.46667C12.4667 4.46667 11.75 4.36667 11.1833 4.16667C10.6167 3.96667 10.1056 3.75 9.65 3.51667C9.19444 3.28333 8.74444 3.07222 8.3 2.88333C7.85556 2.69444 7.31111 2.6 6.66667 2.6Z" fill="#E8EAED"/>
</svg>
