<svg width="20" height="23" viewBox="0 0 20 23" fill="none" xmlns="http://www.w3.org/2000/svg">
<path d="M10 23C7.22917 23 4.86979 22.0719 2.92188 20.2158C0.973958 18.3596 0 16.1 0 13.4368C0 12.1658 0.255208 10.9502 0.765625 9.79013C1.27604 8.63004 2 7.60614 2.9375 6.71842L10 0L17.0625 6.71842C18 7.60614 18.724 8.63004 19.2344 9.79013C19.7448 10.9502 20 12.1658 20 13.4368C20 16.1 19.026 18.3596 17.0781 20.2158C15.1302 22.0719 12.7708 23 10 23ZM10 20.5789C12.0833 20.5789 13.8542 19.8879 15.3125 18.5059C16.7708 17.1239 17.5 15.4342 17.5 13.4368C17.5 12.4886 17.3125 11.5857 16.9375 10.7283C16.5625 9.87083 16.0208 9.1193 15.3125 8.47368L10 3.38947L4.6875 8.47368C3.97917 9.1193 3.4375 9.87083 3.0625 10.7283C2.6875 11.5857 2.5 12.4886 2.5 13.4368C2.5 15.4342 3.22917 17.1239 4.6875 18.5059C6.14583 19.8879 7.91667 20.5789 10 20.5789Z" fill="white"/>
</svg>
