<?xml version="1.0" encoding="UTF-8"?>
<svg width="76px" height="83px" viewBox="0 0 76 83" version="1.1" xmlns="http://www.w3.org/2000/svg" xmlns:xlink="http://www.w3.org/1999/xlink">
    <title>Layer_1</title>
    <g id="Page-1" stroke="none" stroke-width="1" fill="none" fill-rule="evenodd">
        <g id="Layer_1">
            <path d="M44.1963826,1.74465975 L68.8541826,15.9807998 C72.8836826,18.3069997 75.3677826,22.6084998 75.3677826,27.2609997 L75.3677826,55.7355997 C75.3677826,60.3902997 72.8859826,64.6894997 68.8541826,67.0156997 L44.1963826,81.2518998 C40.1668826,83.5780998 35.2008826,83.5780998 31.1714826,81.2518998 L6.51361257,67.0156997 C2.48414257,64.6894997 0,60.3879997 0,55.7355997 L0,27.2609997 C0,22.6061998 2.48182257,18.3069997 6.51361257,15.9807998 L31.1714826,1.74465975 C35.2008826,-0.58155325 40.1668826,-0.58155325 44.1963826,1.74465975 Z" id="Path" fill="#403F44" fill-rule="nonzero"></path>
            <path d="M47.1838826,39.6659997 L28.5171826,39.6659997 C27.0444826,39.6659997 25.8505826,40.8598998 25.8505826,42.3326998 L25.8505826,51.6659997 C25.8505826,53.1387998 27.0444826,54.3326998 28.5171826,54.3326998 L47.1838826,54.3326998 C48.6566826,54.3326998 49.8505826,53.1387998 49.8505826,51.6659997 L49.8505826,42.3326998 C49.8505826,40.8598998 48.6566826,39.6659997 47.1838826,39.6659997 Z" id="Path" stroke="#28272C" stroke-width="3" stroke-linecap="round" stroke-linejoin="round"></path>
            <path d="M31.1838826,39.6659997 L31.1838826,34.3326998 C31.1838826,32.5645997 31.8862826,30.8688997 33.1364826,29.6185997 C34.3866826,28.3683997 36.0823826,27.6659997 37.8505826,27.6659997 C39.6186826,27.6659997 41.3143826,28.3683997 42.5645826,29.6185997 C43.8147826,30.8688997 44.5171826,32.5645997 44.5171826,34.3326998 L44.5171826,39.6659997" id="Path" stroke="#28272C" stroke-width="3" stroke-linecap="round" stroke-linejoin="round"></path>
        </g>
    </g>
</svg>